<?xml version="1.0" standalone="no"?>
<!DOCTYPE svg PUBLIC "-//W3C//DTD SVG 20010904//EN"
 "http://www.w3.org/TR/2001/REC-SVG-20010904/DTD/svg10.dtd">
<svg version="1.0" xmlns="http://www.w3.org/2000/svg"
 width="1000.000000pt" height="1000.000000pt" viewBox="0 0 1000.000000 1000.000000"
 preserveAspectRatio="xMidYMid meet">
<metadata>
Created by potrace 1.11, written by Peter Selinger 2001-2013
</metadata>
<g transform="translate(0.000000,1000.000000) scale(0.100000,-0.100000)"
fill="#000000" stroke="none">
<path d="M4660 9914 c-250 -22 -537 -65 -725 -109 -55 -13 -129 -29 -165 -35
-215 -39 -719 -233 -1029 -397 -320 -169 -649 -387 -884 -586 -119 -100 -532
-514 -626 -627 -324 -389 -606 -864 -792 -1335 -22 -55 -46 -113 -53 -130 -33
-73 -140 -425 -129 -425 3 0 0 -6 -6 -13 -6 -8 -8 -17 -5 -20 3 -3 2 -11 -2
-18 -4 -7 -9 -25 -11 -40 -1 -14 -11 -64 -22 -111 -27 -112 -66 -349 -88 -528
-26 -209 -26 -861 0 -1070 22 -179 61 -416 88 -528 11 -47 21 -97 22 -111 2
-15 7 -33 11 -40 4 -7 5 -15 2 -18 -3 -3 -1 -12 5 -20 6 -7 9 -13 6 -13 -11 0
96 -352 129 -425 7 -16 31 -75 53 -130 186 -471 467 -945 792 -1335 102 -123
538 -557 654 -651 320 -261 716 -507 1085 -674 255 -116 647 -258 775 -280 22
-4 96 -20 165 -35 393 -88 690 -120 1105 -120 415 0 712 32 1105 120 69 15
143 31 165 35 128 22 520 164 775 280 369 167 765 413 1085 674 116 94 552
528 654 651 325 390 606 864 792 1335 22 55 46 114 53 130 33 73 140 425 129
425 -3 0 0 6 6 13 6 8 8 17 4 20 -3 4 -1 13 5 20 7 8 10 16 7 19 -3 3 6 52 19
109 31 129 69 358 93 549 26 209 26 861 0 1070 -24 191 -62 420 -93 549 -13
57 -22 106 -19 109 3 3 0 11 -7 19 -6 7 -8 16 -5 20 4 3 2 12 -4 20 -6 7 -9
13 -6 13 11 0 -95 348 -128 425 -7 17 -39 93 -70 170 -189 463 -461 917 -776
1295 -102 123 -538 557 -654 651 -332 271 -739 521 -1120 690 -288 127 -615
242 -765 269 -36 6 -110 22 -165 35 -55 13 -167 35 -250 49 -298 50 -399 58
-780 61 -198 1 -380 1 -405 -1z m190 -353 c0 -48 1 -47 -140 -56 -169 -10
-156 -1 -148 -98 3 -45 7 -95 7 -111 l1 -29 68 6 c37 4 102 9 145 13 l77 6 0
-45 0 -45 -129 -7 c-70 -4 -134 -11 -141 -15 -10 -6 -10 -35 -1 -140 15 -182
18 -167 -35 -175 -25 -3 -48 -4 -51 -2 -7 7 -60 707 -53 708 25 4 307 27 348
28 l52 1 0 -39z m674 9 l66 -21 0 -50 c0 -45 -2 -50 -17 -44 -146 64 -250 58
-320 -17 -58 -62 -89 -220 -63 -328 14 -57 55 -112 102 -136 43 -22 144 -28
207 -11 l53 15 -5 -45 c-2 -24 -7 -46 -9 -49 -12 -12 -129 -25 -178 -20 -90 9
-150 35 -201 86 -95 95 -114 270 -47 448 27 71 105 152 168 175 64 22 165 21
244 -3z m-1385 -87 c6 -20 9 -39 7 -41 -3 -2 -70 -19 -150 -39 -123 -29 -146
-38 -142 -51 3 -10 15 -56 27 -104 12 -49 24 -88 28 -88 3 1 67 16 141 34
l135 33 11 -36 c6 -20 9 -39 5 -43 -3 -3 -67 -21 -141 -38 -74 -18 -136 -33
-137 -34 -6 -4 56 -231 63 -230 5 1 71 16 147 34 76 18 140 31 142 29 2 -2 6
-21 10 -41 8 -43 30 -33 -224 -94 -109 -26 -155 -33 -160 -25 -13 20 -165 670
-159 677 6 6 352 92 375 93 7 1 17 -16 22 -36z m1972 -10 c145 -47 199 -192
149 -401 -48 -200 -149 -302 -299 -302 -170 0 -273 123 -258 305 14 153 62
270 143 344 78 72 159 88 265 54z m495 -157 l50 -23 13 -304 c8 -167 14 -305
15 -306 2 -2 49 110 106 247 57 138 107 253 111 256 5 2 25 -2 45 -11 26 -11
35 -20 32 -32 -4 -14 -257 -631 -263 -640 -1 -2 -28 8 -61 21 l-59 24 -3 54
c-2 29 -8 168 -15 310 l-12 256 -104 -251 c-57 -139 -106 -255 -110 -259 -8
-8 -81 22 -81 34 0 22 265 648 275 648 5 0 33 -11 61 -24z m-3205 -60 c95 -16
188 -122 234 -267 55 -173 13 -303 -123 -386 -50 -31 -222 -106 -229 -100 -2
2 -64 150 -138 328 -96 232 -131 325 -122 331 6 4 59 26 116 49 100 39 179 60
211 54 8 -2 31 -6 51 -9z m1880 -1046 c525 -52 1004 -225 1449 -522 208 -139
343 -250 525 -433 183 -182 294 -317 433 -525 348 -520 532 -1109 532 -1700 0
-158 -8 -200 -38 -200 -28 0 -49 25 -188 228 -12 18 -30 64 -39 103 -18 79
-50 137 -91 164 -35 23 -147 31 -254 17 -47 -6 -85 -6 -102 0 -40 14 -90 -6
-132 -53 -20 -21 -36 -44 -36 -49 0 -6 -9 -10 -21 -10 -53 0 -90 -52 -93 -130
-1 -40 3 -50 29 -73 30 -27 30 -27 10 -43 -35 -28 -169 -92 -226 -108 -30 -8
-98 -20 -151 -26 -124 -13 -164 -26 -326 -112 -100 -52 -137 -67 -145 -59 -7
7 -12 59 -13 139 -2 149 -17 206 -108 391 -31 64 -56 128 -56 145 0 54 38 267
73 412 42 170 51 256 37 354 -6 41 -15 131 -19 200 -11 159 -29 228 -96 365
-136 281 -336 520 -493 592 -110 50 -176 62 -382 73 -102 5 -225 14 -275 19
-173 19 -300 23 -397 12 -346 -39 -626 -248 -835 -621 -89 -158 -153 -370
-153 -509 0 -47 -5 -104 -10 -126 -5 -22 -13 -85 -16 -140 -8 -123 9 -229 66
-410 22 -71 40 -144 40 -162 0 -17 -27 -105 -59 -195 -33 -90 -66 -190 -75
-223 -18 -72 -38 -226 -35 -275 4 -77 2 -83 -30 -77 -17 4 -112 41 -213 83
-220 92 -267 108 -378 135 -109 25 -158 53 -195 111 -73 114 -76 121 -66 131
23 23 12 75 -26 120 -21 24 -45 58 -54 74 -25 46 -80 67 -184 71 -249 10 -497
-126 -453 -248 8 -20 6 -27 -9 -35 -31 -17 -85 -78 -100 -112 -7 -18 -32 -45
-54 -60 -40 -26 -42 -27 -55 -8 -17 23 -19 222 -4 376 62 621 298 1191 707
1704 112 141 377 406 518 518 506 403 1080 644 1685 706 122 12 460 13 581 1z
m-368 -890 c46 0 47 0 47 -32 0 -23 12 -47 36 -78 l35 -44 -23 -9 c-37 -13
-78 -58 -78 -85 0 -39 37 -89 84 -111 23 -12 48 -21 54 -21 7 0 12 -2 12 -5 0
-7 -32 -58 -41 -65 -3 -3 -16 -36 -29 -74 -16 -50 -21 -83 -17 -125 3 -45 0
-62 -15 -84 l-20 -28 22 -24 c12 -13 35 -29 51 -35 34 -15 36 -21 9 -45 -26
-24 -25 -51 5 -100 31 -50 32 -40 3 21 l-23 46 37 32 37 32 -32 12 c-18 7 -45
22 -61 35 l-29 24 26 34 c23 31 24 36 11 54 -30 40 14 182 78 251 41 45 41 47
-7 58 -45 11 -102 52 -120 86 -19 37 -9 56 51 94 24 15 44 32 44 38 0 5 -18
30 -40 55 -22 25 -40 55 -40 66 0 18 5 19 73 14 39 -4 155 -11 257 -17 218
-12 242 -15 332 -46 109 -37 163 -72 247 -159 144 -150 326 -463 357 -615 22
-105 14 -250 -20 -351 -32 -97 -102 -249 -114 -249 -10 0 -20 132 -21 263 -1
80 -16 144 -41 172 -11 13 -18 36 -19 65 0 53 -25 176 -42 214 -9 19 -34 37
-84 60 -100 46 -120 50 -174 30 -52 -18 -52 -18 -154 60 -32 25 -43 28 -81 23
-36 -5 -50 -2 -80 18 -76 51 -146 70 -210 55 -32 -7 -43 -5 -73 16 -20 13 -43
24 -52 24 -9 -1 -2 -7 16 -15 18 -7 37 -22 44 -33 10 -16 18 -18 43 -11 17 5
52 9 78 9 37 0 55 -7 91 -34 65 -49 80 -56 134 -56 39 0 56 -6 89 -33 22 -17
57 -41 77 -52 35 -18 38 -18 72 -2 20 9 46 17 58 17 35 0 177 -57 192 -77 21
-27 38 -108 41 -197 2 -61 7 -83 22 -100 30 -32 31 -46 38 -261 9 -329 5 -359
-55 -406 -14 -11 -29 -33 -33 -47 -4 -15 -6 7 -4 48 2 41 6 84 10 95 3 11 -1
4 -11 -15 -27 -57 -22 -197 11 -286 30 -84 31 -92 10 -115 -15 -17 -12 -22 48
-86 116 -124 130 -158 99 -228 -13 -29 -29 -49 -46 -55 -15 -6 -86 -9 -158 -8
-183 3 -247 -19 -438 -147 -165 -111 -243 -142 -294 -118 -36 17 -88 88 -113
156 -23 59 -34 71 -20 21 8 -31 37 -100 66 -157 3 -6 -46 1 -56 8 -1 1 -11 49
-22 106 -27 145 -32 170 -36 166 -2 -2 5 -61 15 -133 11 -71 17 -132 15 -136
-7 -12 -54 -10 -54 2 0 6 -5 10 -11 10 -6 0 -9 -7 -5 -15 4 -11 -2 -15 -24
-15 -17 0 -30 2 -30 5 0 2 11 38 25 79 31 93 32 133 1 50 -12 -34 -31 -76 -42
-95 -19 -32 -24 -34 -94 -43 -51 -6 -91 -5 -129 4 -48 11 -64 21 -121 79 -51
51 -76 89 -114 166 -72 149 -136 252 -182 295 -43 40 -107 64 -196 75 -44 6
-51 11 -87 62 -38 52 -51 81 -66 147 -11 49 -13 24 -4 -42 10 -69 28 -111 61
-141 l21 -21 -26 -20 c-27 -22 -39 -51 -57 -141 -7 -34 -28 -83 -56 -128 -49
-78 -55 -107 -9 -41 15 22 31 40 34 40 4 0 5 -17 3 -39 -8 -79 37 -282 74
-336 19 -26 17 -36 -3 -28 -47 16 -80 68 -93 142 l-8 46 -1 -51 c-2 -78 9
-113 45 -149 24 -24 48 -36 86 -44 75 -15 554 -91 574 -91 9 0 34 16 55 35 34
31 146 95 166 95 4 0 -13 -21 -39 -47 -25 -27 -53 -61 -61 -78 -10 -20 16 0
84 65 54 52 99 101 99 107 0 18 34 33 74 33 l36 0 0 -122 -1 -123 -24 30 c-30
36 -21 46 -112 -125 -74 -140 -71 -135 -78 -128 -5 5 15 114 29 163 4 11 -5
-4 -20 -33 -14 -30 -30 -84 -35 -120 -22 -153 -39 -225 -73 -300 -20 -44 -36
-86 -36 -93 1 -16 78 143 86 178 8 32 19 29 42 -11 21 -35 66 -56 123 -56 27
0 76 29 50 30 -10 0 -5 10 14 30 35 36 39 37 53 6 17 -38 54 -57 112 -58 40 0
57 5 76 23 13 12 24 28 24 36 0 22 19 14 34 -14 17 -30 102 -128 90 -103 -4 8
-27 46 -52 83 l-46 68 13 47 c22 74 25 127 5 63 -7 -23 -12 -9 -24 63 -9 60
-51 166 -65 166 -3 0 4 -18 15 -40 11 -21 20 -46 20 -55 0 -14 -5 -13 -30 5
-39 28 -77 94 -86 148 -4 23 -10 45 -15 48 -4 2 -17 -13 -29 -36 -11 -22 -25
-40 -30 -40 -6 0 -10 54 -10 135 l0 135 26 0 c40 0 86 -33 156 -112 61 -69
120 -108 163 -108 13 0 6 7 -20 19 -22 11 -52 30 -66 43 -30 27 -109 123 -109
132 0 13 44 -17 90 -60 81 -76 133 -87 277 -59 60 12 112 14 225 9 l146 -7 49
49 c54 55 129 192 139 256 4 24 16 46 32 58 34 27 42 25 42 -9 0 -20 11 -40
35 -64 19 -19 35 -33 35 -30 0 3 -12 31 -26 62 l-25 57 20 53 c40 101 23 170
-71 284 -56 68 -118 179 -118 208 1 8 8 2 16 -13 21 -40 25 -34 9 12 -8 23
-17 62 -21 88 -6 45 -4 49 20 60 34 15 64 65 72 121 6 40 78 168 95 170 3 1
-2 -32 -12 -71 -42 -167 -47 -292 -17 -418 6 -25 42 -115 79 -200 37 -85 75
-182 83 -215 43 -163 -10 -362 -137 -516 -54 -65 -157 -144 -203 -155 -13 -3
-51 3 -86 15 -35 11 -81 23 -103 27 -22 4 -59 15 -82 25 -23 10 -78 26 -122
35 -68 15 -89 16 -134 5 -60 -14 -113 -47 -147 -94 -20 -27 -16 -24 28 15 29
26 69 52 89 59 41 13 133 7 178 -12 29 -12 28 -13 -40 -21 -88 -11 -184 -54
-215 -98 -13 -19 -24 -51 -26 -78 l-4 -47 15 47 c27 83 102 138 188 138 30 0
35 -11 13 -30 -49 -40 -67 -211 -31 -284 11 -22 26 -42 34 -44 8 -3 4 9 -10
28 -34 45 -40 177 -11 243 21 48 57 78 97 83 30 3 30 4 3 -48 -32 -61 -36
-143 -9 -203 l21 -47 -25 -20 c-14 -10 -27 -34 -31 -54 -8 -42 -83 -124 -129
-139 -26 -9 -65 -53 -78 -88 -3 -8 -10 -6 -19 7 -35 45 -108 13 -143 -60 -16
-33 -35 -46 -35 -22 0 26 -34 48 -73 48 -31 0 -46 -7 -71 -32 -18 -18 -36 -40
-39 -48 -6 -13 -8 -13 -14 0 -3 8 -19 27 -34 42 -37 37 -95 39 -137 3 -36 -30
-42 -31 -42 -5 0 12 -9 39 -20 60 -18 35 -25 40 -56 40 -19 0 -46 -7 -59 -16
-21 -14 -25 -14 -25 -2 0 20 -49 68 -69 68 -9 0 -25 13 -35 29 -18 26 -64 61
-80 61 -3 0 -19 -18 -35 -40 l-29 -40 -6 87 c-6 86 -3 118 28 252 15 67 9 142
-13 164 -17 17 -13 24 15 23 43 -2 85 -86 94 -189 l7 -82 2 77 c0 48 -5 95
-15 124 -8 25 -13 48 -10 51 11 11 58 -29 103 -88 48 -61 71 -71 65 -28 -5 34
-37 82 -77 118 -19 17 -35 33 -35 35 0 8 61 -5 85 -17 11 -5 38 -24 60 -41 39
-30 31 -10 -10 26 -31 27 -121 58 -169 58 -24 0 -67 4 -96 10 -75 14 -155 -1
-285 -55 -61 -24 -115 -45 -122 -45 -7 0 -17 9 -23 19 -5 11 -60 73 -121 138
-145 155 -162 187 -167 323 -5 132 16 238 93 478 62 193 85 295 85 383 0 66
10 74 34 27 26 -55 18 -20 -16 65 -30 75 -31 82 -16 107 14 25 14 27 -14 43
-15 9 -28 23 -28 30 0 15 48 61 86 83 18 11 18 12 -3 36 -55 59 -52 99 19 242
22 43 37 80 35 82 -5 5 -95 -184 -102 -218 -7 -29 26 -118 44 -118 19 0 12
-18 -9 -25 -11 -4 -34 -18 -51 -32 -39 -33 -42 -27 -63 87 -49 263 17 519 205
801 154 229 361 389 582 449 86 24 223 40 277 34 19 -2 56 -4 83 -4z m-1073
-1470 c0 -5 -4 -10 -10 -10 -5 0 -10 5 -10 10 0 6 5 10 10 10 6 0 10 -4 10
-10z m-2996 -501 c31 -11 58 -24 61 -29 3 -6 -21 -61 -54 -123 l-61 -114 -71
2 -70 1 -66 113 c-42 72 -62 116 -56 122 5 5 32 18 59 29 69 27 186 27 258 -1z
m8560 -20 c31 -11 58 -24 61 -29 3 -6 -21 -61 -54 -123 l-61 -114 -71 2 -70 1
-66 113 c-42 72 -62 116 -56 122 5 5 32 18 59 29 69 27 186 27 258 -1z m-6822
-25 c18 -11 40 -33 48 -49 9 -17 33 -47 54 -67 30 -30 36 -42 31 -60 -4 -13
-11 -27 -15 -31 -8 -9 69 -157 99 -191 26 -29 85 -55 189 -82 126 -32 91 -18
552 -215 l125 -53 104 -108 c57 -59 119 -129 139 -154 34 -46 35 -46 82 -41
25 3 86 22 134 42 48 20 109 39 136 42 45 5 51 3 79 -25 28 -27 31 -37 31 -91
0 -64 -29 -160 -56 -181 -12 -10 -27 -7 -82 18 -162 73 -265 96 -425 94 l-118
-1 -78 72 c-51 48 -102 85 -152 109 -75 36 -105 46 -456 158 -106 33 -273 90
-370 126 -98 37 -206 75 -241 86 -56 18 -61 22 -45 34 30 22 57 16 117 -27 53
-38 66 -43 143 -50 93 -10 147 -24 264 -69 71 -27 189 -50 189 -37 0 3 -26 11
-57 18 -32 6 -112 32 -178 56 -66 25 -153 51 -193 58 -73 13 -91 21 -169 81
-26 20 -56 34 -72 34 -43 0 -92 -39 -138 -110 -24 -36 -54 -75 -68 -87 -25
-22 -28 -22 -56 -7 -23 11 -40 36 -70 101 -21 47 -55 112 -76 144 -20 33 -36
72 -36 88 0 41 37 88 99 122 30 17 64 45 76 62 l23 32 -33 -23 -32 -23 -12 25
c-16 37 0 66 58 104 132 88 367 127 456 76z m3482 -43 c-8 -8 -44 32 -37 42 3
5 14 -1 24 -14 10 -13 16 -26 13 -28z m1537 28 c70 13 198 9 227 -7 34 -19 51
-52 67 -128 7 -38 17 -79 20 -91 6 -17 3 -23 -8 -23 -9 0 -21 10 -28 23 -12
23 -48 56 -62 57 -4 0 5 -25 20 -54 27 -53 30 -55 69 -55 53 -1 81 -24 119
-95 l30 -56 -29 -55 c-16 -31 -55 -82 -86 -115 -57 -59 -59 -60 -112 -60 -47
0 -62 5 -98 33 -107 81 -126 84 -227 32 -56 -29 -83 -36 -153 -41 -101 -7
-194 -25 -310 -60 -108 -33 -272 -95 -266 -101 3 -3 53 11 113 31 173 57 292
86 378 92 78 5 79 5 47 -10 -18 -9 -86 -30 -150 -47 -248 -67 -365 -103 -580
-181 -209 -76 -278 -106 -167 -73 95 29 113 13 38 -35 -25 -16 -62 -33 -81
-36 -18 -4 -36 -14 -39 -23 -3 -9 -15 -26 -25 -38 -17 -18 -25 -20 -51 -12
-52 15 -196 10 -292 -10 -90 -18 -228 -68 -268 -96 -29 -21 -34 -19 -52 15
-31 61 -15 155 40 225 14 18 20 18 86 7 39 -7 103 -26 141 -43 l69 -30 42 20
c114 56 233 175 293 292 18 37 31 50 61 60 21 6 97 43 169 80 148 78 246 114
331 124 169 18 201 27 325 89 l123 61 -2 39 c-2 25 -11 49 -25 64 -24 24 -25
46 -6 95 12 31 16 32 46 11 28 -20 43 -10 36 24 -4 20 3 36 27 65 41 50 65 58
110 40 29 -11 49 -12 90 -4z m-3521 -49 c11 -7 5 -17 -32 -50 -27 -23 -59 -65
-75 -98 -24 -50 -28 -69 -28 -147 0 -55 7 -118 19 -163 10 -40 16 -75 13 -78
-13 -13 -49 138 -54 228 -5 88 -3 103 22 173 22 58 37 84 68 111 45 37 46 38
67 24z m-3316 -221 c50 -40 21 -119 -44 -119 -65 0 -94 79 -44 119 15 12 34
21 44 21 10 0 29 -9 44 -21z m8560 -20 c50 -40 21 -119 -44 -119 -65 0 -94 79
-44 119 15 12 34 21 44 21 10 0 29 -9 44 -21z m-8720 -61 c3 -18 17 -44 30
-58 l25 -25 -71 -112 c-39 -62 -77 -113 -85 -113 -24 0 -114 92 -141 145 -17
35 -27 72 -30 123 l-5 72 135 0 136 0 6 -32z m504 -40 c-3 -51 -13 -88 -30
-123 -27 -53 -117 -145 -141 -145 -8 0 -46 51 -85 113 l-71 112 25 25 c13 14
27 40 30 58 l7 32 135 0 135 0 -5 -72z m8056 20 c3 -18 17 -44 30 -58 l25 -25
-71 -112 c-39 -62 -77 -113 -85 -113 -24 0 -114 92 -141 145 -17 35 -27 72
-30 123 l-5 72 135 0 136 0 6 -32z m504 -40 c-3 -51 -13 -88 -30 -123 -27 -53
-117 -145 -141 -145 -8 0 -46 51 -85 113 l-71 112 25 25 c13 14 27 40 30 58
l7 32 135 0 135 0 -5 -72z m-7023 -672 c83 -26 266 -80 407 -121 290 -84 355
-111 470 -191 115 -80 170 -103 280 -115 116 -12 256 -37 277 -49 13 -7 8 -12
-24 -26 -29 -13 -70 -18 -146 -20 -119 -2 -131 -7 -201 -72 -37 -34 -79 -58
-186 -102 -76 -32 -181 -72 -235 -89 -87 -28 -110 -31 -215 -31 -80 1 -130 6
-157 16 -108 42 -190 64 -236 64 -44 0 -54 -4 -95 -42 -55 -51 -98 -129 -92
-169 4 -26 1 -30 -31 -39 -67 -18 -96 -13 -129 24 -117 134 -368 645 -404 823
-16 78 -8 83 113 82 112 -1 139 6 258 69 79 41 90 44 141 39 30 -3 123 -26
205 -51z m5070 6 c88 -36 93 -37 220 -37 72 0 136 -4 144 -9 21 -14 7 -81 -50
-234 -88 -239 -240 -525 -385 -728 -55 -78 -73 -81 -175 -26 -68 36 -70 38
-64 69 13 72 -34 163 -103 201 -57 32 -137 38 -247 18 -112 -20 -150 -20 -261
-1 -127 22 -306 85 -475 166 -137 66 -153 71 -242 79 -103 10 -187 28 -187 40
0 15 89 31 233 40 187 13 224 26 387 135 172 114 228 134 617 219 88 19 210
51 270 70 59 19 117 37 128 39 38 10 100 -4 190 -41z m-2060 -267 c7 -43 -10
-145 -23 -145 -4 0 -15 25 -24 55 -18 55 -14 89 14 122 18 22 27 14 33 -32z
m-1187 -100 c37 -31 46 -65 27 -101 -8 -16 -15 -42 -16 -59 -1 -16 -4 -41 -8
-55 -6 -22 -8 -23 -14 -7 -4 12 -13 16 -24 13 -14 -4 -22 5 -37 47 -23 63 -24
113 -2 155 20 39 35 40 74 7z m1117 -11 c8 -20 15 -58 15 -85 0 -40 -5 -55
-30 -81 l-29 -33 -1 55 c0 30 -7 68 -15 84 -8 15 -15 32 -15 38 0 9 45 58 54
58 3 0 13 -16 21 -36z m-79 -80 c21 -50 18 -140 -7 -191 -11 -24 -24 -43 -28
-43 -4 0 -15 16 -24 35 -9 19 -21 35 -26 35 -6 0 -19 -19 -29 -42 -11 -24 -31
-55 -47 -70 -27 -27 -82 -45 -108 -35 -7 3 -30 -8 -52 -24 -44 -33 -94 -38
-151 -14 -26 11 -56 13 -103 9 -76 -6 -104 5 -137 53 -15 23 -25 29 -35 22
-25 -15 -65 -10 -113 16 -26 14 -64 25 -85 25 -59 0 -75 24 -69 107 4 59 37
153 53 153 3 0 18 -18 34 -41 25 -33 28 -45 20 -65 -5 -14 -9 -40 -8 -57 0
-28 2 -26 14 18 15 56 44 85 86 85 24 0 32 -7 50 -42 12 -24 24 -70 27 -105 6
-77 22 -94 22 -24 0 43 4 53 31 75 42 36 78 34 116 -6 41 -44 52 -67 54 -117
2 -23 7 -45 13 -48 5 -4 7 18 3 57 -5 59 -4 64 26 96 18 19 47 38 64 43 30 9
35 7 63 -27 32 -39 50 -88 50 -135 0 -16 4 -26 9 -23 7 5 -5 115 -14 124 -2 3
4 21 15 42 21 40 73 90 95 90 13 0 39 -27 78 -80 14 -20 17 -21 11 -5 -20 59
-17 74 24 116 45 45 57 44 78 -7z m-1156 -36 c12 -40 28 -83 36 -95 13 -20 11
-24 -19 -46 -54 -41 -125 -72 -275 -121 -153 -49 -332 -130 -475 -214 -71 -42
-85 -48 -76 -30 22 42 114 130 164 159 61 35 52 38 -15 4 -69 -35 -134 -106
-236 -256 -51 -76 -115 -156 -151 -190 -55 -50 -63 -63 -63 -94 0 -96 -86
-175 -191 -175 -104 0 -103 113 3 205 l43 37 -48 -32 c-54 -35 -64 -35 -177 5
-36 13 -93 26 -125 30 -33 4 -81 13 -107 22 l-48 15 0 69 c0 38 6 85 14 103
15 36 42 45 136 46 79 1 177 49 200 99 15 33 6 37 -14 6 -9 -13 -35 -35 -59
-47 -36 -19 -58 -22 -157 -23 -112 -1 -116 0 -142 26 -44 43 -34 82 39 160 47
50 49 51 94 46 26 -3 89 -23 140 -43 92 -37 96 -38 221 -37 148 1 228 19 407
90 156 61 220 94 277 143 62 55 79 60 187 59 56 0 108 5 133 14 60 22 154 71
199 105 22 17 45 31 52 31 6 1 21 -32 33 -71z m1417 18 c112 -42 195 -63 306
-75 78 -9 101 -17 182 -60 311 -168 637 -245 829 -195 145 38 256 -19 256
-131 0 -30 -11 -66 -25 -83 -2 -2 -14 2 -27 9 -12 7 -68 16 -123 19 -73 5
-111 13 -142 28 -47 24 -57 27 -48 12 13 -20 68 -41 145 -55 133 -23 186 -63
216 -162 19 -62 18 -73 -8 -73 -35 0 -148 -31 -204 -55 -27 -12 -66 -37 -86
-54 l-37 -32 -47 36 c-26 20 -61 43 -78 51 l-31 14 25 -17 c14 -10 47 -38 74
-63 l48 -45 -5 -69 c-3 -37 -9 -71 -12 -74 -9 -9 -159 14 -190 29 -49 23 -76
75 -74 139 1 54 0 56 -52 111 -42 43 -68 86 -116 188 -34 73 -56 131 -50 131
18 0 148 -77 182 -108 16 -15 23 -18 15 -8 -27 35 -174 148 -230 176 -88 45
-278 117 -365 139 -44 11 -127 27 -185 36 -132 21 -164 28 -272 67 -91 31
-106 47 -64 66 15 6 31 29 42 59 18 47 42 83 55 83 4 0 47 -15 96 -34z m-1242
-580 c28 -7 111 -36 185 -64 158 -59 231 -74 355 -74 100 1 188 23 290 74 92
47 182 78 224 78 35 0 262 -50 453 -100 201 -53 327 -133 380 -242 83 -170
168 -491 153 -575 -9 -47 -61 -86 -219 -163 -303 -146 -595 -235 -941 -287
-171 -25 -639 -25 -810 0 -244 37 -463 93 -680 174 -171 64 -438 197 -486 243
-36 34 -39 41 -39 92 0 134 88 352 181 446 126 128 375 260 723 383 90 32 154
36 231 15z m2197 -1709 c14 -39 14 -70 -3 -372 -10 -182 -18 -335 -19 -342 0
-13 -90 -57 -98 -48 -3 2 5 156 18 340 12 185 21 337 19 339 -2 2 -76 -27
-164 -65 -88 -37 -166 -68 -172 -68 -14 -1 -46 55 -41 71 3 9 410 185 433 187
6 1 18 -18 27 -42z m-3197 -41 c113 -52 157 -156 124 -294 -18 -74 -83 -205
-124 -251 -102 -113 -237 -134 -410 -65 l-64 26 15 36 c8 20 16 37 18 39 1 2
30 -8 64 -22 78 -31 158 -41 207 -25 43 14 100 62 120 100 l14 27 -63 5 c-103
9 -196 60 -232 130 -19 36 -18 129 2 176 51 123 202 178 329 118z m2525 -204
c95 -46 115 -187 39 -268 l-20 -21 46 -12 c97 -24 152 -119 126 -214 -29 -101
-132 -173 -293 -204 -48 -9 -89 -15 -92 -12 -2 2 -7 23 -11 46 l-7 43 34 0
c48 0 152 27 199 50 83 43 102 135 39 193 -26 23 -39 27 -91 27 -33 0 -80 -5
-105 -11 -25 -6 -46 -10 -48 -8 -3 2 -7 20 -11 40 -7 36 -6 37 32 43 130 24
188 111 131 196 -13 19 -36 37 -52 41 -39 11 -115 -5 -177 -36 -28 -15 -52
-25 -54 -23 -2 2 -8 20 -13 41 -10 37 -10 38 26 56 118 59 223 70 302 33z
m-1907 2 c15 -3 27 -8 27 -11 0 -2 -32 -137 -71 -300 -53 -221 -68 -298 -58
-303 6 -4 38 -13 71 -20 32 -7 61 -16 63 -20 7 -12 -15 -80 -27 -80 -10 0
-312 70 -389 91 l-37 9 11 43 c5 23 11 43 11 44 1 1 37 -7 80 -18 43 -11 83
-18 89 -16 10 3 129 478 122 485 -1 2 -41 -7 -89 -19 -47 -13 -87 -21 -90 -18
-2 2 -7 22 -10 44 l-7 41 123 31 c68 17 130 29 138 27 8 -2 27 -6 43 -10z
m1227 -85 c88 -19 140 -82 140 -170 0 -52 -25 -104 -62 -132 l-28 -21 50 -24
c60 -28 91 -69 97 -127 7 -58 -12 -110 -59 -161 -56 -61 -125 -85 -259 -91
l-106 -6 -5 39 c-3 22 -3 42 -1 46 2 5 46 8 96 8 118 1 183 22 214 69 44 65
22 137 -49 166 -30 12 -64 16 -118 13 l-75 -3 -3 43 -3 42 51 0 c90 0 146 37
157 104 12 76 -35 126 -119 126 -39 0 -117 -17 -160 -35 -16 -6 -18 -1 -18 39
l0 45 53 15 c97 27 136 30 207 15z m-600 -31 c0 -18 -9 -145 -20 -283 -27
-343 -29 -315 24 -315 24 0 58 -3 75 -6 29 -6 31 -9 31 -52 l0 -45 -62 6 c-35
4 -136 12 -226 18 l-163 12 3 46 3 45 60 -2 c33 -2 75 -5 93 -9 31 -5 32 -5
33 33 0 22 8 136 18 254 10 118 17 216 16 218 -1 1 -37 -13 -80 -33 -43 -19
-82 -35 -86 -35 -9 0 -25 32 -31 64 -5 25 200 114 265 115 47 1 47 1 47 -31z"/>
<path d="M5944 9380 c-73 -47 -123 -167 -131 -311 -5 -87 -3 -101 17 -136 45
-82 147 -103 217 -47 74 59 123 189 125 326 1 88 -17 129 -72 165 -43 30 -113
31 -156 3z"/>
<path d="M3210 9148 c-30 -11 -59 -24 -64 -28 -7 -7 166 -445 193 -488 6 -11
22 -7 72 16 105 47 157 126 146 221 -12 103 -82 235 -146 278 -44 30 -125 30
-201 1z"/>
<path d="M4595 6854 c-36 -31 -109 -69 -190 -100 -33 -13 -54 -23 -47 -24 24
0 163 62 214 96 28 19 52 34 55 34 3 0 18 -11 35 -25 23 -19 41 -25 80 -25 46
0 213 38 205 47 -2 2 -44 -6 -93 -18 -105 -25 -155 -21 -193 15 -15 14 -29 26
-32 26 -2 -1 -17 -12 -34 -26z"/>
<path d="M4968 6863 c6 -2 18 -2 25 0 6 3 1 5 -13 5 -14 0 -19 -2 -12 -5z"/>
<path d="M4089 6593 l-24 -28 28 24 c25 23 32 31 24 31 -2 0 -14 -12 -28 -27z"/>
<path d="M3956 6385 c-9 -26 -7 -32 5 -12 6 10 9 21 6 23 -2 3 -7 -2 -11 -11z"/>
<path d="M4012 5925 c0 -11 4 -33 8 -50 7 -27 8 -27 8 -5 0 14 -4 36 -8 50 -6
20 -8 21 -8 5z"/>
<path d="M4016 5748 c-3 -18 -34 -75 -68 -126 -55 -83 -62 -99 -64 -150 l-3
-57 7 50 c7 48 32 99 99 197 29 45 51 104 40 114 -2 3 -7 -10 -11 -28z"/>
<path d="M4160 5545 c0 -2 44 -27 98 -55 220 -117 302 -209 337 -376 l14 -69
-2 71 c-4 129 -83 244 -220 323 -57 33 -227 112 -227 106z"/>
<path d="M4646 5073 c25 -60 61 -100 100 -113 50 -17 54 -5 6 19 -35 18 -102
98 -102 123 0 4 -4 8 -9 8 -6 0 -3 -17 5 -37z"/>
<path d="M5018 4993 c5 -21 7 -23 10 -9 2 10 0 22 -6 28 -6 6 -7 0 -4 -19z"/>
<path d="M6151 4804 c0 -11 3 -14 6 -6 3 7 2 16 -1 19 -3 4 -6 -2 -5 -13z"/>
<path d="M3820 4805 c0 -5 5 -17 10 -25 5 -8 10 -10 10 -5 0 6 -5 17 -10 25
-5 8 -10 11 -10 5z"/>
<path d="M6220 4628 c0 -9 -14 -42 -30 -74 -19 -38 -23 -50 -10 -34 24 31 55
108 46 117 -3 3 -6 -1 -6 -9z"/>
<path d="M6035 4569 c-90 -91 -94 -92 -263 -87 -113 4 -162 1 -230 -13 -94
-19 -74 -26 24 -8 43 8 97 8 201 -1 121 -9 146 -9 170 4 39 20 180 166 160
166 -1 0 -29 -27 -62 -61z"/>
<path d="M4609 4059 c-4 -39 -15 -69 -38 -105 l-32 -49 31 35 c36 41 53 91 48
140 -3 29 -4 25 -9 -21z"/>
<path d="M5383 4040 c0 -30 2 -43 4 -27 2 15 2 39 0 55 -2 15 -4 2 -4 -28z"/>
<path d="M4471 4044 c0 -11 3 -14 6 -6 3 7 2 16 -1 19 -3 4 -6 -2 -5 -13z"/>
<path d="M5390 3977 c-1 -24 55 -97 74 -97 5 0 -4 15 -21 33 -17 17 -35 41
-41 52 -6 11 -12 16 -12 12z"/>
<path d="M4851 3827 c-30 -48 -26 -58 4 -12 15 20 24 39 22 42 -3 2 -14 -11
-26 -30z"/>
<path d="M4964 3846 c3 -10 12 -47 18 -82 13 -69 28 -85 28 -31 0 19 11 55 24
80 15 31 18 43 8 35 -8 -7 -22 -29 -30 -48 l-15 -35 -13 44 c-8 24 -17 47 -20
50 -4 3 -4 -2 0 -13z"/>
<path d="M5150 3848 c0 -3 11 -30 25 -60 14 -29 25 -46 24 -38 0 15 -48 111
-49 98z"/>
<path d="M2323 5197 c-10 -5 -49 -32 -86 -60 -70 -51 -97 -88 -97 -132 0 -20
-5 -25 -24 -25 -19 0 -27 -9 -40 -40 -9 -22 -16 -53 -16 -68 0 -30 34 -92 51
-92 6 0 1 12 -10 26 -25 32 -27 74 -6 115 22 41 43 27 69 -47 21 -57 56 -91
80 -77 5 4 0 10 -12 14 -29 11 -39 34 -49 110 -14 99 -5 118 83 183 41 31 83
56 93 56 10 0 37 -15 61 -32 23 -18 54 -41 69 -50 28 -20 77 -23 101 -8 11 7
7 10 -18 10 -43 0 -65 12 -129 70 -55 50 -89 63 -120 47z"/>
<path d="M7591 5090 c-46 -16 -92 -30 -103 -30 -10 0 -18 -4 -18 -10 0 -5 6
-8 13 -5 164 54 225 58 266 17 40 -40 66 -134 52 -184 -7 -20 -21 -44 -34 -53
-12 -8 -16 -15 -10 -15 21 0 63 61 63 91 0 32 6 35 31 16 56 -44 67 -118 22
-155 l-28 -24 31 16 c17 8 34 23 38 31 19 51 -14 151 -57 174 -14 8 -27 28
-34 54 -7 23 -25 55 -41 70 -44 42 -90 43 -191 7z"/>
<path d="M3353 1329 c-39 -25 -73 -92 -73 -145 1 -64 48 -107 138 -124 29 -5
66 -7 82 -3 26 5 32 13 45 56 22 75 20 148 -7 182 -43 55 -128 71 -185 34z"/>
</g>
</svg>
